<?xml version="1.0" encoding="utf-8"?>
<!-- Generator: Adobe Illustrator 22.0.1, SVG Export Plug-In . SVG Version: 6.00 Build 0)  -->
<svg version="1.1" xmlns="http://www.w3.org/2000/svg" xmlns:xlink="http://www.w3.org/1999/xlink" x="0px" y="0px"
	 viewBox="0 0 130 29.2" style="enable-background:new 0 0 130 29.2;" xml:space="preserve">
<style type="text/css">
	.st0{fill:#172836;}
	.st1{fill-rule:evenodd;clip-rule:evenodd;fill:#172836;}
	.st2{fill:#FFFFFF;}
	.st3{fill:#0E2430;}
	.st4{fill-rule:evenodd;clip-rule:evenodd;fill:#0B2532;}
	.st5{fill:#0B2532;}
	.st6{fill:#042634;}
	.st7{fill:#263A7A;stroke:#082432;stroke-miterlimit:10;}
	.st8{fill:none;stroke:#FF0000;stroke-miterlimit:10;}
</style>
<g id="Layer_1">
	<g>
		<g>
			<g>
				<g>
					<path class="st0" d="M28.2,22.9c-4.6,3.8-11.1,4.1-15.9,1c4.3,1.4,9.3,0.7,13-2.4C31,16.7,31.8,8.3,27,2.6
						c-0.9-1.1-2-2-3.1-2.7c2.3,0.8,4.3,2.1,6,4.1C34.7,9.7,33.9,18.1,28.2,22.9"/>
					<path class="st0" d="M12.7,1.7c5.8-2.3,12.4,0.5,14.8,6.2c0.8,1.9,1,3.9,0.7,5.8c-0.1-0.5-0.3-1-0.5-1.5
						c-2.1-5.1-7.9-7.5-13-5.5c-5.1,2-7.6,7.8-5.5,12.9c0.2,0.5,0.5,1,0.7,1.4c-1.5-1.2-2.8-2.8-3.5-4.7C4.1,10.6,6.9,4,12.7,1.7"/>
					<path class="st0" d="M0.1,14.2c0-6.7,4.4-12.3,10.5-14.2C6.3,2.5,3.4,7.3,3.4,12.7c0,8.3,6.7,14.9,15.1,14.9
						c1.6,0,3.1-0.2,4.6-0.7c-2.3,1.4-5,2.2-7.8,2.2C6.8,29.1,0.1,22.4,0.1,14.2"/>
					<path class="st1" d="M53.6,1.7l3.3-0.8v15.7c0,1.7,0.5,2.8,1.6,3.1c-0.5,1-1.4,1.5-2.6,1.5c-1.5,0-2.2-1-2.2-3.1V1.7z"/>
					<path class="st1" d="M61,9.5h-1.6V6.9H61V4.1l3.3-1.2v4h3.9v2.6h-3.9v6.1c0,1,0.2,1.7,0.5,2.1c0.3,0.4,0.9,0.6,1.7,0.6
						c0.8,0,1.5-0.2,2.2-0.6v3c-0.8,0.3-1.9,0.4-3.3,0.4c-1.4,0-2.5-0.4-3.2-1.2c-0.8-0.8-1.1-1.9-1.1-3.4V9.5z"/>
					<path class="st1" d="M78.6,9.5H77V6.9h1.6V4.1l3.3-1.2v4h3.9v2.6h-3.9v6.1c0,1,0.2,1.7,0.5,2.1c0.3,0.4,0.9,0.6,1.7,0.6
						c0.8,0,1.5-0.2,2.2-0.6v3c-0.8,0.3-1.9,0.4-3.3,0.4c-1.4,0-2.5-0.4-3.2-1.2c-0.8-0.8-1.1-1.9-1.1-3.4V9.5z"/>
					<path class="st1" d="M96.8,20.9v-1.2c-0.5,0.4-1.1,0.7-1.9,1c-0.8,0.3-1.6,0.4-2.3,0.4c-3.3,0-4.9-1.7-4.9-5.2V6.9H91v8.8
						c0,1.8,0.8,2.7,2.4,2.7c0.7,0,1.4-0.2,2.1-0.6c0.6-0.4,1.1-0.8,1.3-1.3V6.9h3.3v14H96.8z"/>
					<path class="st1" d="M47,14.3c-0.6-0.1-1-0.2-1.3-0.2c-2.6,0-3.9,0.9-3.9,2.6c0,1.3,0.7,1.9,2.2,1.9c2,0,3-1,3-3V14.3z
						 M47.3,19.5c-0.3,0.5-0.8,0.9-1.6,1.2c-0.7,0.3-1.5,0.5-2.3,0.5c-1.5,0-2.7-0.4-3.6-1.1c-0.9-0.8-1.3-1.8-1.3-3.2
						c0-1.6,0.6-2.9,1.8-3.8c1.2-0.9,3-1.4,5.2-1.4c0.4,0,0.8,0.1,1.4,0.2c0-1.6-1-2.5-3.1-2.5c-1.2,0-2.3,0.2-3.1,0.6L40,7.4
						c1.1-0.5,2.5-0.8,4-0.8c2.2,0,3.7,0.5,4.7,1.5c1,1,1.5,2.8,1.5,5.5v3c0,1.9,0.4,3,1.1,3.5c-0.3,0.5-0.6,0.8-0.9,0.9
						c-0.3,0.1-0.7,0.2-1.1,0.2c-0.5,0-0.9-0.2-1.3-0.5C47.7,20.3,47.4,19.9,47.3,19.5"/>
					<path class="st1" d="M71.5,20.9V9.6h-1.8V6.9h5.2v14H71.5z M73.2,1.5c0.5,0,1,0.2,1.4,0.6c0.4,0.4,0.6,0.8,0.6,1.3
						c0,0.5-0.2,1-0.6,1.3c-0.4,0.4-0.8,0.6-1.4,0.6c-0.5,0-1-0.2-1.4-0.6c-0.4-0.4-0.6-0.8-0.6-1.3c0-0.5,0.2-1,0.6-1.3
						C72.3,1.6,72.7,1.5,73.2,1.5"/>
					<path class="st1" d="M111.4,10.2c-0.7-0.6-1.4-0.8-2.2-0.8c-1.3,0-2.3,0.4-3,1.2c-0.7,0.8-1.1,1.9-1.1,3.4
						c0,2.9,1.4,4.4,4.2,4.4c0.3,0,0.7-0.1,1.2-0.3c0.5-0.2,0.8-0.4,0.9-0.6V10.2z M111.4,20.9V20c-0.3,0.3-0.7,0.6-1.4,0.8
						c-0.6,0.2-1.3,0.3-2,0.3c-2,0-3.5-0.6-4.6-1.9c-1.1-1.2-1.7-3-1.7-5.2c0-2.2,0.6-4,1.9-5.4c1.3-1.4,2.9-2.1,4.9-2.1
						c1.1,0,2,0.2,2.9,0.7V1.7l3.3-0.8v20H111.4z"/>
					<path class="st1" d="M119.9,12.4h6.9c-0.2-2.1-1.4-3.1-3.4-3.1C121.5,9.4,120.3,10.4,119.9,12.4 M129.8,14.9h-10.1
						c0.1,1.1,0.4,2,1.2,2.6c0.7,0.6,1.7,0.9,2.9,0.9c1.5,0,2.6-0.4,3.4-1.1l1.3,2.5c-1.2,0.9-2.9,1.4-5.2,1.4
						c-2.1,0-3.8-0.6-5.1-1.9c-1.3-1.2-1.9-3-1.9-5.2c0-2.2,0.7-4,2.1-5.4c1.4-1.4,3-2.1,4.9-2.1c2,0,3.7,0.6,4.9,1.8
						c1.2,1.2,1.9,2.8,1.9,4.6C130.1,13.5,130,14.1,129.8,14.9"/>
				</g>
			</g>
		</g>
	</g>
</g>
<g id="specctr">
	<g id="Object_Properties">
	</g>
	<g id="Dimensions">
	</g>
</g>
</svg>
